<svg xmlns="http://www.w3.org/2000/svg" viewBox="0 0 66 72.5" x="0px" y="0px"><path fill="#000000" fill-rule="evenodd" d="M93.098902,226.604337 L112.434139,184.215549 C113.568914,181.727772 116.532675,180.515542 119.092824,181.494691 L119.388572,181.607802 C121.988622,182.602211 123.169891,185.491301 122.012505,188.016155 L99.7401656,236.603596 C99.118348,237.9601 97.4954334,239 96.0026083,239 L69.9992748,239 C67.238461,239 65,236.765165 65,234.006898 L65,227.993102 C65,225.182001 67.3093527,223.165731 70.100449,223.537877 L93.098902,226.604337 Z M94.6110318,228.1085 C94.4283668,228.508958 94.0053392,228.742895 93.5690491,228.684723 L69.8361215,225.520333 C68.2427117,225.307878 67,226.392876 67,227.993102 L67,234.006898 C67,235.659869 68.3423053,237 69.9992748,237 L96.0026083,237 C96.7139527,237 97.6263228,236.415389 97.9220799,235.770191 L120.19442,187.18275 C120.870276,185.70836 120.195342,184.057641 118.674126,183.47584 L118.378378,183.362729 C116.804074,182.760624 114.95014,183.518916 114.253777,185.045559 L94.6110318,228.1085 Z M57,206 C57,203.016956 61.5381513,201 67,201 C72.4618487,201 77,203.016956 77,206 L77,213 C77,216.372012 72.9508522,218 67,218 C60.4430241,218 57,216.500633 57,213 L57,206 Z M67,209 C71.4792768,209 75,207.435234 75,206 C75,204.564766 71.4792768,203 67,203 C62.5207232,203 59,204.564766 59,206 C59,207.435234 62.5207232,209 67,209 Z M67,211 C63.7543293,211 60.8348401,210.287761 59,209.083799 L59,213 C59,214.941532 61.4305782,216 67,216 C71.9391118,216 75,214.769349 75,213 L75,209.083799 C73.1651599,210.287761 70.2456707,211 67,211 Z" transform="translate(-57 -181)"/><text x="0" y="73" fill="#000000" font-size="5px" font-weight="bold" font-family="'Helvetica Neue', Helvetica, Arial-Unicode, Arial, Sans-serif">Created by Andrejs Kirma</text><text x="0" y="78" fill="#000000" font-size="5px" font-weight="bold" font-family="'Helvetica Neue', Helvetica, Arial-Unicode, Arial, Sans-serif">from the Noun Project</text></svg>