<svg xmlns="http://www.w3.org/2000/svg" xmlns:xlink="http://www.w3.org/1999/xlink" version="1.1" x="0px" y="0px" viewBox="0 0 100 125" style="enable-background:new 0 0 100 100;" xml:space="preserve"><g><path d="M40.3,27c0.2,0.7,0.9,1.2,1.6,1.2l2-0.1c0,0,0,0,0,0c1.1,1.4,2.7,2.4,4.6,2.7c0.2,0,0.3,0.2,0.3,0.3v4.3   c0,0.2-0.2,0.4-0.4,0.4c-1.9,0-3.5,1.6-3.5,3.5v0.8c0,0.2,0.2,0.4,0.4,0.4h9.3c0.2,0,0.4-0.2,0.4-0.4v-0.8c0-1.9-1.6-3.5-3.5-3.5h0   c-0.2,0-0.4-0.2-0.4-0.4v-4.3c0-0.2,0.1-0.3,0.3-0.3c1.8-0.3,3.4-1.3,4.6-2.7c0,0,0,0,0,0l2,0.1c0.7,0,1.5-0.5,1.6-1.2l1.2-4.9   c0.3-1.3-0.4-2.1-1.5-1.8l-1.8,0.5v-1.4H50h-7.7v1.4l-1.8-0.5c-1.1-0.3-1.8,0.6-1.5,1.8L40.3,27z"/><path d="M14.2,43.2c0.2,0.7,0.9,1.2,1.6,1.2l2-0.1c0,0,0,0,0,0c1.1,1.4,2.7,2.4,4.6,2.7c0.2,0,0.3,0.2,0.3,0.3v4.3   c0,0.2-0.2,0.4-0.4,0.4c-1.9,0-3.5,1.6-3.5,3.5v0.8c0,0.2,0.2,0.4,0.4,0.4h9.3c0.2,0,0.4-0.2,0.4-0.4v-0.8c0-1.9-1.6-3.5-3.5-3.5h0   c-0.2,0-0.4-0.2-0.4-0.4v-4.3c0-0.2,0.1-0.3,0.3-0.3c1.8-0.3,3.4-1.3,4.6-2.7c0,0,0,0,0,0l2,0.1c0.7,0,1.5-0.5,1.6-1.2l1.2-4.9   c0.3-1.3-0.4-2.1-1.5-1.8l-1.8,0.5v-1.4h-7.7h-7.7v1.4l-1.8-0.5c-1.1-0.3-1.8,0.6-1.5,1.8L14.2,43.2z"/><path d="M66.3,37.9c0.2,0.7,0.9,1.2,1.6,1.2l2-0.1c0,0,0,0,0,0c1.1,1.4,2.7,2.4,4.6,2.7c0.2,0,0.3,0.2,0.3,0.3v4.3   c0,0.2-0.2,0.4-0.4,0.4c-1.9,0-3.5,1.6-3.5,3.5V51c0,0.2,0.2,0.4,0.4,0.4h9.3c0.2,0,0.4-0.2,0.4-0.4v-0.8c0-1.9-1.6-3.5-3.5-3.5h0   c-0.2,0-0.4-0.2-0.4-0.4v-4.3c0-0.2,0.1-0.3,0.3-0.3c1.8-0.3,3.4-1.3,4.6-2.7c0,0,0,0,0,0l2,0.1c0.7,0,1.5-0.5,1.6-1.2l1.2-4.9   c0.3-1.3-0.4-2.1-1.5-1.8l-1.8,0.5v-1.4H76h-7.7v1.4l-1.8-0.5c-1.1-0.3-1.8,0.6-1.5,1.8L66.3,37.9z"/><path d="M84.4,53.2H68.6c-3,0-5.3-2.5-5.3-5.5c-0.1-2.9-2.5-5.3-5.4-5.3H42.1c-3,0-5.4,2.4-5.4,5.4v5.3c0,3-2.4,5.4-5.4,5.4H15.6   c-3,0-5.4,2.4-5.4,5.4v16.8h26.5h26.5h26.5V58.6C89.8,55.6,87.3,53.2,84.4,53.2z M32.7,71.7c-0.6,3-3,5.5-6.1,6.1   c-5.5,1-10.2-3.7-9.1-9.1c0.6-3,3-5.5,6.1-6.1C29,61.6,33.7,66.2,32.7,71.7z M57.6,56.3c-0.6,3-3,5.5-6.1,6.1   c-5.5,1-10.2-3.7-9.1-9.1c0.6-3,3-5.5,6.1-6.1C53.9,46.2,58.6,50.9,57.6,56.3z M83.6,71.7c-0.6,3-3,5.5-6.1,6.1   c-5.5,1-10.1-3.7-9.1-9.1c0.6-3,3-5.5,6.1-6.1C80,61.6,84.6,66.2,83.6,71.7z"/></g><text x="0" y="115" fill="#000000" font-size="5px" font-weight="bold" font-family="'Helvetica Neue', Helvetica, Arial-Unicode, Arial, Sans-serif">Created by Muhammad Riza</text><text x="0" y="120" fill="#000000" font-size="5px" font-weight="bold" font-family="'Helvetica Neue', Helvetica, Arial-Unicode, Arial, Sans-serif">from the Noun Project</text></svg>