<svg xmlns="http://www.w3.org/2000/svg" xmlns:xlink="http://www.w3.org/1999/xlink" version="1.1" x="0px" y="0px" viewBox="0 0 100 125" style="enable-background:new 0 0 100 100;" xml:space="preserve"><g><path d="M90.7,86.9c0,2.4-1.6,3-3,3h-72c-2.4,0-3-1.7-3-3v-27h78V86.9z M85.5,44.9l-4.5,12h-12l4.5-12H85.5z M62.9,44.9l-4.5,12   h-12l4.5-12H62.9z M40.4,44.9l-4.5,12h-12l4.5-12H40.4z M28,39.4l-8.2-9.9l11.4-3.9l8.2,9.9L28,39.4z M41.1,22.1l11.4-3.9l8.2,9.9   L49.2,32L41.1,22.1z M62.4,14.8l11.4-3.9l8.2,9.9l-11.4,3.9L62.4,14.8z M17.6,39.2c2.3,0,4.2,1.9,4.2,4.2c0,2.3-1.9,4.2-4.2,4.2   s-4.2-1.9-4.2-4.2C13.4,41.1,15.2,39.2,17.6,39.2 M96.7,86.9V55.4v-1.5v-7.5c0-1.8-1.2-4.5-4.5-4.5H29.7l59.5-20.5   c3.1-1.1,3.4-4,2.8-5.7l-2.9-8.5c-1.1-3.1-4-3.4-5.7-2.8L6.7,30.8c-3.1,1.1-3.4,4-2.8,5.7L6.9,45c0,0,0,0,0,0.1   c-0.1,0.4-0.3,0.8-0.3,1.3v7.5v1.5v31.5c0,3.6,2.4,9,9,9h72C91.3,96,96.7,93.6,96.7,86.9"/></g><text x="0" y="115" fill="#000000" font-size="5px" font-weight="bold" font-family="'Helvetica Neue', Helvetica, Arial-Unicode, Arial, Sans-serif">Created by Rediffusion</text><text x="0" y="120" fill="#000000" font-size="5px" font-weight="bold" font-family="'Helvetica Neue', Helvetica, Arial-Unicode, Arial, Sans-serif">from the Noun Project</text></svg>