<svg xmlns="http://www.w3.org/2000/svg" xmlns:xlink="http://www.w3.org/1999/xlink" version="1.1" x="0px" y="0px" viewBox="0 0 64 110" style="enable-background:new 0 0 64 88;" xml:space="preserve"><path d="M63,0H1C0.448,0,0,0.448,0,1v86c0,0.552,0.448,1,1,1h62c0.552,0,1-0.448,1-1V1C64,0.448,63.552,0,63,0z M62,86H2V2h60V86z"/><path d="M28,16H12v16h16V16z M27,31H13V17h14V31z"/><path d="M24.819,29c0,0,0.111-0.529-0.165-1.149c-0.276-0.62-1.621-1.195-2.515-1.58s-0.772-0.619-0.804-0.938  c-0.004-0.042-0.007-0.087-0.009-0.133c0.268-0.256,0.488-0.59,0.636-0.969c0,0,0.008-0.021,0.011-0.028  c0.034-0.091,0.065-0.186,0.091-0.283c0.205-0.04,0.324-0.258,0.37-0.459c0.046-0.081,0.142-0.282,0.12-0.51  c-0.027-0.28-0.139-0.416-0.267-0.477c0.035-0.082,0.067-0.167,0.092-0.251c0.132-0.43,0.007-1.393-0.211-1.924  c-0.217-0.531-1.125-0.935-1.412-0.923c-0.25,0.01-0.34,0.122-0.451,0.2c-0.016-0.08-0.053-0.152-0.122-0.203  c-0.263-0.192-1.092-0.277-1.476,0.016c-0.385,0.294-0.475,0.453-0.771,0.874c-0.296,0.421-0.393,1.454-0.363,1.674  c0.018,0.136,0.074,0.354,0.137,0.539c-0.127,0.062-0.236,0.198-0.263,0.475c-0.022,0.228,0.074,0.428,0.12,0.51  c0.046,0.205,0.169,0.426,0.381,0.461c0.026,0.097,0.057,0.193,0.092,0.285c0.002,0.006,0.005,0.012,0.007,0.018l0.003,0.008  c0.15,0.387,0.377,0.727,0.653,0.985c-0.002,0.04-0.004,0.079-0.008,0.116c-0.032,0.319,0.062,0.553-0.832,0.938  c-0.894,0.385-2.239,0.96-2.515,1.58C15.07,28.471,15.181,29,15.181,29H24.819z"/><path d="M36,32h16V16H36V32z M37,17h14v14H37V17z"/><path d="M28,40H12v16h16V40z M27,55H13V41h14V55z"/><path d="M24.819,53c0,0,0.111-0.529-0.165-1.149c-0.276-0.62-1.621-1.195-2.515-1.58c-0.894-0.385-0.772-0.619-0.804-0.938  c-0.004-0.042-0.007-0.087-0.009-0.133c0.268-0.256,0.488-0.59,0.636-0.969c0,0,0.008-0.021,0.011-0.028  c0.034-0.091,0.065-0.186,0.091-0.283c0.205-0.04,0.324-0.258,0.37-0.459c0.046-0.081,0.142-0.282,0.12-0.51  c-0.027-0.28-0.139-0.416-0.267-0.477c0.035-0.082,0.067-0.167,0.092-0.251c0.132-0.43,0.007-1.393-0.211-1.924  c-0.217-0.531-1.125-0.935-1.412-0.923c-0.25,0.01-0.34,0.122-0.451,0.2c-0.016-0.08-0.053-0.152-0.122-0.203  c-0.263-0.192-1.092-0.277-1.476,0.016c-0.385,0.294-0.475,0.453-0.771,0.874s-0.393,1.454-0.363,1.674  c0.018,0.136,0.074,0.354,0.137,0.539c-0.127,0.062-0.236,0.198-0.263,0.475c-0.022,0.228,0.074,0.428,0.12,0.51  c0.046,0.205,0.169,0.426,0.381,0.461c0.026,0.097,0.057,0.193,0.092,0.285c0.002,0.006,0.005,0.012,0.007,0.018l0.003,0.008  c0.15,0.387,0.377,0.727,0.653,0.985c-0.002,0.04-0.004,0.079-0.008,0.116c-0.032,0.319,0.062,0.553-0.832,0.938  c-0.894,0.385-2.239,0.96-2.515,1.58C15.07,52.471,15.181,53,15.181,53H24.819z"/><path d="M36,56h16V40H36V56z M37,41h14v14H37V41z"/><path d="M28,64H12v16h16V64z M27,79H13V65h14V79z"/><path d="M36,80h16V64H36V80z M37,65h14v14H37V65z"/><rect x="20" y="7" width="24" height="2"/><path d="M46.139,26.59c-0.894-0.385-0.772-0.62-0.804-0.94c-0.009-0.089-0.012-0.191-0.011-0.29c0.261-0.217,0.487-0.481,0.626-0.84  c0,0,0.008-0.021,0.011-0.028c0.034-0.091,0.049-0.355,0.075-0.452c0.205-0.04,0.324-0.258,0.37-0.459  c0.046-0.081,0.142-0.282,0.12-0.51c-0.028-0.293-0.149-0.429-0.286-0.485c0-0.018,0-0.034,0-0.051c0-0.052-0.001-0.103-0.002-0.154  c0.039-0.271,0.072-0.539,0.072-0.692c0-0.2-0.043-0.597-0.179-0.961l0.003,0.002l-0.179-0.381l-0.031-0.153l-0.153-0.043  c-0.008-0.007-0.017-0.014-0.025-0.022c0.019-0.037-0.131-0.146-0.002-0.19c-0.055-0.077-0.327-0.032-0.327-0.032  s-0.041-0.265-0.107-0.3c-0.035,0.048-0.17,0.034-0.282,0.025c-0.421-0.055-0.161-0.414-0.595-0.454  c0.002-0.17-0.002-0.306-0.002-0.306s-0.221,0.185-0.302,0.112c-0.05-0.171,0.066-0.385,0.066-0.385s-0.318,0.004-0.394,0.32  c-0.067-0.091,0.011-0.232,0.063-0.302c-0.404,0.137-0.533,0.44-0.694,0.634c-0.021,0.026-0.081-0.09-0.073-0.161  c-0.157,0.074-0.253,0.499-0.324,0.529c-0.071,0.03-0.215-0.09-0.226-0.138c-0.148,0.01-0.497,0.723-0.497,0.723l-0.344,0.344  c0,0,0.174-0.013,0.183,0.05s-0.255,0.529-0.255,0.529s0.143-0.082,0.158-0.035s-0.003,0.016-0.004,0.024L41.58,21.67l0.145-0.056  c-0.018,0.202-0.026,0.401-0.026,0.58c0,0.172,0.007,0.305,0.017,0.413c-0.118,0.067-0.217,0.203-0.242,0.464  c-0.022,0.228,0.074,0.428,0.12,0.51c0.047,0.205,0.169,0.426,0.381,0.461c0.026,0.097,0.069,0.335,0.104,0.427  c0.002,0.006,0.005,0.012,0.007,0.018l0.003,0.008c0.141,0.364,0.357,0.628,0.615,0.846c0.001,0.105-0.002,0.212-0.011,0.307  c-0.032,0.319,0.062,0.553-0.832,0.938s-2.239,0.803-2.515,1.422C39.071,28.628,39.181,29,39.181,29h9.638  c0,0,0.111-0.372-0.165-0.992C48.379,27.388,47.033,26.975,46.139,26.59z"/><path d="M46.139,50.113c-0.894-0.385-0.772-0.619-0.804-0.938c-0.002-0.019-0.004-0.039-0.005-0.06  c0.19-0.165,0.358-0.367,0.497-0.597c0.555,0.13,1.176,0.119,1.72-0.275c-0.868-0.868-0.377-2.023-1.003-3.94  c-0.533-1.63-2.717-1.55-2.999-0.977c-1.158-0.409-2.032,0.139-2.354,1.865c-0.37,1.983,0.129,2.192-0.739,3.059  c0.603,0.345,1.161,0.301,1.654,0.134c0.156,0.293,0.357,0.548,0.591,0.746c-0.001,0.015-0.002,0.03-0.004,0.045  c-0.032,0.319,0.062,0.553-0.832,0.938s-2.239,1.039-2.515,1.659C39.071,52.392,39.181,53,39.181,53h9.638  c0,0,0.111-0.608-0.165-1.228C48.379,51.152,47.033,50.498,46.139,50.113z"/><path d="M24.819,77c0,0,0.111-0.372-0.165-0.992c-0.276-0.62-1.621-1.034-2.515-1.419s-0.772-0.62-0.804-0.94  c-0.009-0.089-0.012-0.191-0.011-0.29c0.261-0.217,0.487-0.481,0.626-0.84c0,0,0.008-0.021,0.011-0.028  c0.034-0.091,0.049-0.355,0.075-0.452c0.205-0.04,0.324-0.258,0.37-0.459c0.046-0.081,0.142-0.282,0.12-0.51  c-0.028-0.293-0.149-0.429-0.286-0.485c0-0.018,0-0.034,0-0.051c0-0.052-0.001-0.103-0.002-0.154  c0.039-0.271,0.072-0.539,0.072-0.692c0-0.2-0.043-0.597-0.179-0.961l0.003,0.002l-0.179-0.381l-0.031-0.153l-0.153-0.043  c-0.008-0.007-0.017-0.014-0.025-0.022c0.019-0.037-0.131-0.146-0.002-0.19c-0.055-0.077-0.327-0.032-0.327-0.032  s-0.041-0.265-0.107-0.3c-0.035,0.048-0.17,0.034-0.282,0.025c-0.421-0.055-0.161-0.414-0.595-0.454  c0.002-0.17-0.002-0.306-0.002-0.306s-0.221,0.185-0.302,0.112c-0.05-0.171,0.066-0.385,0.066-0.385s-0.318,0.004-0.394,0.32  c-0.067-0.091,0.011-0.232,0.063-0.302c-0.404,0.137-0.533,0.44-0.694,0.634c-0.021,0.026-0.081-0.09-0.073-0.161  c-0.157,0.074-0.253,0.499-0.324,0.529s-0.215-0.09-0.226-0.138c-0.148,0.01-0.497,0.723-0.497,0.723l-0.344,0.344  c0,0,0.174-0.013,0.183,0.05s-0.255,0.529-0.255,0.529s0.143-0.082,0.158-0.035c0.015,0.047-0.003,0.016-0.004,0.024L17.58,69.67  l0.145-0.056c-0.018,0.202-0.026,0.401-0.026,0.58c0,0.172,0.007,0.305,0.017,0.413c-0.118,0.067-0.217,0.203-0.242,0.464  c-0.022,0.228,0.074,0.428,0.12,0.51c0.047,0.205,0.169,0.426,0.381,0.461c0.026,0.097,0.069,0.335,0.104,0.427  c0.002,0.006,0.005,0.012,0.007,0.018l0.003,0.008c0.141,0.364,0.357,0.628,0.615,0.846c0.001,0.105-0.002,0.212-0.011,0.307  c-0.032,0.319,0.062,0.553-0.832,0.938s-2.239,0.803-2.515,1.422C15.071,76.628,15.181,77,15.181,77H24.819z"/><path d="M46.325,74.794c-0.971-0.418-0.839-0.605-0.874-0.952c-0.008-0.08-0.011-0.135-0.012-0.224  c0.294-0.279,0.536-0.627,0.697-1.043c0,0,0.009-0.015,0.012-0.022c0.037-0.099,0.07-0.198,0.099-0.303  c0.223-0.044,0.352-0.278,0.402-0.497c0.05-0.088-0.08-0.305-0.104-0.553C46.514,70.881,46,70.735,46,70.674  c0-0.019,0-0.037,0-0.055c0-0.08,0.232-0.16,0.229-0.24c0.047-0.317,0.147-0.753,0.028-1.196c0.19,0.098,0.428,0.071,0.791-0.035  c0.433-0.127,0.167,0.544,0.937,0.458c-0.537-0.152-0.128-1.055-0.831-1.212c-0.576-0.128-0.802,0.349-0.868,0.527  c-0.299-0.825-0.977-1.6-2.292-1.6c-1.305,0-1.987,0.776-2.288,1.601c-0.065-0.176-0.298-0.657-0.875-0.528  c-0.703,0.157-0.309,1.06-0.846,1.212c0.769,0.087,0.474-0.584,0.907-0.458c0.363,0.106,0.543,0.133,0.733,0.035  c-0.128,0.477,0.087,0.945,0.152,1.266C41.776,70.505,42,70.562,42,70.618c0,0.016,0,0.033,0,0.051c0,0.059-0.515,0.205-0.546,0.532  c-0.024,0.248-0.032,0.466,0.018,0.554c0.05,0.222,0.128,0.463,0.358,0.501c0.029,0.106,0.091,0.209,0.129,0.309  C41.96,72.572,42,72.578,42,72.584v0.009c0,0.421,0.351,0.789,0.65,1.07c-0.001,0.085-0.033,0.169-0.041,0.246  c-0.035,0.347,0.038,0.601-0.933,1.019c-0.971,0.418-2.433,0.597-2.733,1.27c-0.3,0.673-0.18,0.802-0.18,0.802h10.473  c0,0,0.121-0.129-0.179-0.802C48.758,75.524,47.296,75.212,46.325,74.794z"/><text x="0" y="103" fill="#000000" font-size="5px" font-weight="bold" font-family="'Helvetica Neue', Helvetica, Arial-Unicode, Arial, Sans-serif">Created by Lil Squid</text><text x="0" y="108" fill="#000000" font-size="5px" font-weight="bold" font-family="'Helvetica Neue', Helvetica, Arial-Unicode, Arial, Sans-serif">from the Noun Project</text></svg>